<?xml version="1.0" encoding="UTF-8"?>
<!-- Created with Grafika (https://www.grafika.cc/) -->
<svg xmlns="http://www.w3.org/2000/svg" xmlns:svg="http://www.w3.org/2000/svg" xmlns:xlink="http://www.w3.org/1999/xlink" width="846.17" height="1080" viewBox="0 0 269.31 343.73" preserveAspectRatio="xMidYMid meet">
	<g transform="matrix(1, 0, 0, 1, 625.894775390625, 183.58596801757812)">
		<path transform="matrix(4.800245761871338, 0, 0, 4.800245761871338, -491.04345703125, 0)" d="M-28.09,-2.45 Q-28.09,-8.85 -26.41,-15.25 Q-24.7,-21.64 -21.26,-26.75 Q-17.79,-31.85 -12.54,-35.05 Q-7.29,-38.25 -0.09,-38.25 Q7.31,-38.25 12.61,-35.05 Q17.9,-31.85 21.35,-26.75 Q24.79,-21.64 26.4,-15.25 Q28.01,-8.85 28.01,-2.45 Q28.01,4.04 26.3,10.46 Q24.59,16.86 21.15,21.96 Q17.71,27.04 12.39,30.21 Q7.09,33.36 -0.09,33.36 Q-7.39,33.36 -12.66,30.11 Q-17.91,26.84 -21.35,21.76 Q-24.8,16.66 -26.46,10.27 Q-28.09,3.84 -28.09,-2.45 ZM-0.09,23.16 Q4.89,23.16 8.19,20.67 Q11.51,18.15 13.44,14.37 Q15.39,10.56 16.24,6.07 Q17.1,1.55 17.1,-2.45 Q17.1,-6.56 16.24,-11.05 Q15.39,-15.54 13.44,-19.3 Q11.51,-23.06 8.19,-25.55 Q4.89,-28.04 -0.09,-28.04 Q-4.9,-28.04 -8.2,-25.55 Q-11.49,-23.06 -13.44,-19.2 Q-15.4,-15.34 -16.25,-10.85 Q-17.11,-6.36 -17.11,-2.45 Q-17.11,1.45 -16.25,5.97 Q-15.4,10.46 -13.4,14.27 Q-11.39,18.05 -8.15,20.62 Q-4.9,23.16 -0.09,23.16 Z" style="fill:#260A59;" />
		<path transform="matrix(0.48464590311050415, 0, 0, 0.48464590311050415, -491.04345703125, 0)" d="M-28.09,-2.45 Q-28.09,-8.85 -26.41,-15.25 Q-24.7,-21.64 -21.26,-26.75 Q-17.79,-31.85 -12.54,-35.05 Q-7.29,-38.25 -0.09,-38.25 Q7.31,-38.25 12.61,-35.05 Q17.9,-31.85 21.35,-26.75 Q24.79,-21.64 26.4,-15.25 Q28.01,-8.85 28.01,-2.45 Q28.01,4.04 26.3,10.46 Q24.59,16.86 21.15,21.96 Q17.71,27.04 12.39,30.21 Q7.09,33.36 -0.09,33.36 Q-7.39,33.36 -12.66,30.11 Q-17.91,26.84 -21.35,21.76 Q-24.8,16.66 -26.46,10.27 Q-28.09,3.84 -28.09,-2.45 ZM-0.09,23.16 Q4.89,23.16 8.19,20.67 Q11.51,18.15 13.44,14.37 Q15.39,10.56 16.24,6.07 Q17.1,1.55 17.1,-2.45 Q17.1,-6.56 16.24,-11.05 Q15.39,-15.54 13.44,-19.3 Q11.51,-23.06 8.19,-25.55 Q4.89,-28.04 -0.09,-28.04 Q-4.9,-28.04 -8.2,-25.55 Q-11.49,-23.06 -13.44,-19.2 Q-15.4,-15.34 -16.25,-10.85 Q-17.11,-6.36 -17.11,-2.45 Q-17.11,1.45 -16.25,5.97 Q-15.4,10.46 -13.4,14.27 Q-11.39,18.05 -8.15,20.62 Q-4.9,23.16 -0.09,23.16 Z" style="fill:#260A59;" />
		<path transform="matrix(0.6363793015480042, 0, 0, 0.6363793015480042, -491.04345703125, 0)" d="M-28.09,-2.45 Q-28.09,-8.85 -26.41,-15.25 Q-24.7,-21.64 -21.26,-26.75 Q-17.79,-31.85 -12.54,-35.05 Q-7.29,-38.25 -0.09,-38.25 Q7.31,-38.25 12.61,-35.05 Q17.9,-31.85 21.35,-26.75 Q24.79,-21.64 26.4,-15.25 Q28.01,-8.85 28.01,-2.45 Q28.01,4.04 26.3,10.46 Q24.59,16.86 21.15,21.96 Q17.71,27.04 12.39,30.21 Q7.09,33.36 -0.09,33.36 Q-7.39,33.36 -12.66,30.11 Q-17.91,26.84 -21.35,21.76 Q-24.8,16.66 -26.46,10.27 Q-28.09,3.84 -28.09,-2.45 ZM-0.09,23.16 Q4.89,23.16 8.19,20.67 Q11.51,18.15 13.44,14.37 Q15.39,10.56 16.24,6.07 Q17.1,1.55 17.1,-2.45 Q17.1,-6.56 16.24,-11.05 Q15.39,-15.54 13.44,-19.3 Q11.51,-23.06 8.19,-25.55 Q4.89,-28.04 -0.09,-28.04 Q-4.9,-28.04 -8.2,-25.55 Q-11.49,-23.06 -13.44,-19.2 Q-15.4,-15.34 -16.25,-10.85 Q-17.11,-6.36 -17.11,-2.45 Q-17.11,1.45 -16.25,5.97 Q-15.4,10.46 -13.4,14.27 Q-11.39,18.05 -8.15,20.62 Q-4.9,23.16 -0.09,23.16 Z" style="fill:#360F7D;" />
		<path transform="matrix(0.8610316514968872, 0, 0, 0.8610316514968872, -491.04345703125, 0)" d="M-28.09,-2.45 Q-28.09,-8.85 -26.41,-15.25 Q-24.7,-21.64 -21.26,-26.75 Q-17.79,-31.85 -12.54,-35.05 Q-7.29,-38.25 -0.09,-38.25 Q7.31,-38.25 12.61,-35.05 Q17.9,-31.85 21.35,-26.75 Q24.79,-21.64 26.4,-15.25 Q28.01,-8.85 28.01,-2.45 Q28.01,4.04 26.3,10.46 Q24.59,16.86 21.15,21.96 Q17.71,27.04 12.39,30.21 Q7.09,33.36 -0.09,33.36 Q-7.39,33.36 -12.66,30.11 Q-17.91,26.84 -21.35,21.76 Q-24.8,16.66 -26.46,10.27 Q-28.09,3.84 -28.09,-2.45 ZM-0.09,23.16 Q4.89,23.16 8.19,20.67 Q11.51,18.15 13.44,14.37 Q15.39,10.56 16.24,6.07 Q17.1,1.55 17.1,-2.45 Q17.1,-6.56 16.24,-11.05 Q15.39,-15.54 13.44,-19.3 Q11.51,-23.06 8.19,-25.55 Q4.89,-28.04 -0.09,-28.04 Q-4.9,-28.04 -8.2,-25.55 Q-11.49,-23.06 -13.44,-19.2 Q-15.4,-15.34 -16.25,-10.85 Q-17.11,-6.36 -17.11,-2.45 Q-17.11,1.45 -16.25,5.97 Q-15.4,10.46 -13.4,14.27 Q-11.39,18.05 -8.15,20.62 Q-4.9,23.16 -0.09,23.16 Z" style="fill:#401296;" />
		<path transform="matrix(1.1049785614013672, 0, 0, 1.1049785614013672, -491.04345703125, 0)" d="M-28.09,-2.45 Q-28.09,-8.85 -26.41,-15.25 Q-24.7,-21.64 -21.26,-26.75 Q-17.79,-31.85 -12.54,-35.05 Q-7.29,-38.25 -0.09,-38.25 Q7.31,-38.25 12.61,-35.05 Q17.9,-31.85 21.35,-26.75 Q24.79,-21.64 26.4,-15.25 Q28.01,-8.85 28.01,-2.45 Q28.01,4.04 26.3,10.46 Q24.59,16.86 21.15,21.96 Q17.71,27.04 12.39,30.21 Q7.09,33.36 -0.09,33.36 Q-7.39,33.36 -12.66,30.11 Q-17.91,26.84 -21.35,21.76 Q-24.8,16.66 -26.46,10.27 Q-28.09,3.84 -28.09,-2.45 ZM-0.09,23.16 Q4.89,23.16 8.19,20.67 Q11.51,18.15 13.44,14.37 Q15.39,10.56 16.24,6.07 Q17.1,1.55 17.1,-2.45 Q17.1,-6.56 16.24,-11.05 Q15.39,-15.54 13.44,-19.3 Q11.51,-23.06 8.19,-25.55 Q4.89,-28.04 -0.09,-28.04 Q-4.9,-28.04 -8.2,-25.55 Q-11.49,-23.06 -13.44,-19.2 Q-15.4,-15.34 -16.25,-10.85 Q-17.11,-6.36 -17.11,-2.45 Q-17.11,1.45 -16.25,5.97 Q-15.4,10.46 -13.4,14.27 Q-11.39,18.05 -8.15,20.62 Q-4.9,23.16 -0.09,23.16 Z" style="fill:#501CAF;" />
		<path transform="matrix(1.3937312364578247, 0, 0, 1.3937312364578247, -491.04345703125, 0)" d="M-28.09,-2.45 Q-28.09,-8.85 -26.41,-15.25 Q-24.7,-21.64 -21.26,-26.75 Q-17.79,-31.85 -12.54,-35.05 Q-7.29,-38.25 -0.09,-38.25 Q7.31,-38.25 12.61,-35.05 Q17.9,-31.85 21.35,-26.75 Q24.79,-21.64 26.4,-15.25 Q28.01,-8.85 28.01,-2.45 Q28.01,4.04 26.3,10.46 Q24.59,16.86 21.15,21.96 Q17.71,27.04 12.39,30.21 Q7.09,33.36 -0.09,33.36 Q-7.39,33.36 -12.66,30.11 Q-17.91,26.84 -21.35,21.76 Q-24.8,16.66 -26.46,10.27 Q-28.09,3.84 -28.09,-2.45 ZM-0.09,23.16 Q4.89,23.16 8.19,20.67 Q11.51,18.15 13.44,14.37 Q15.39,10.56 16.24,6.07 Q17.1,1.55 17.1,-2.45 Q17.1,-6.56 16.24,-11.05 Q15.39,-15.54 13.44,-19.3 Q11.51,-23.06 8.19,-25.55 Q4.89,-28.04 -0.09,-28.04 Q-4.9,-28.04 -8.2,-25.55 Q-11.49,-23.06 -13.44,-19.2 Q-15.4,-15.34 -16.25,-10.85 Q-17.11,-6.36 -17.11,-2.45 Q-17.11,1.45 -16.25,5.97 Q-15.4,10.46 -13.4,14.27 Q-11.39,18.05 -8.15,20.62 Q-4.9,23.16 -0.09,23.16 Z" style="fill:#5E27C3;" />
		<path transform="matrix(1.7026456594467163, 0, 0, 1.7026456594467163, -491.04345703125, 0)" d="M-28.09,-2.45 Q-28.09,-8.85 -26.41,-15.25 Q-24.7,-21.64 -21.26,-26.75 Q-17.79,-31.85 -12.54,-35.05 Q-7.29,-38.25 -0.09,-38.25 Q7.31,-38.25 12.61,-35.05 Q17.9,-31.85 21.35,-26.75 Q24.79,-21.64 26.4,-15.25 Q28.01,-8.85 28.01,-2.45 Q28.01,4.04 26.3,10.46 Q24.59,16.86 21.15,21.96 Q17.71,27.04 12.39,30.21 Q7.09,33.36 -0.09,33.36 Q-7.39,33.36 -12.66,30.11 Q-17.91,26.84 -21.35,21.76 Q-24.8,16.66 -26.46,10.27 Q-28.09,3.84 -28.09,-2.45 ZM-0.09,23.16 Q4.89,23.16 8.19,20.67 Q11.51,18.15 13.44,14.37 Q15.39,10.56 16.24,6.07 Q17.1,1.55 17.1,-2.45 Q17.1,-6.56 16.24,-11.05 Q15.39,-15.54 13.44,-19.3 Q11.51,-23.06 8.19,-25.55 Q4.89,-28.04 -0.09,-28.04 Q-4.9,-28.04 -8.2,-25.55 Q-11.49,-23.06 -13.44,-19.2 Q-15.4,-15.34 -16.25,-10.85 Q-17.11,-6.36 -17.11,-2.45 Q-17.11,1.45 -16.25,5.97 Q-15.4,10.46 -13.4,14.27 Q-11.39,18.05 -8.15,20.62 Q-4.9,23.16 -0.09,23.16 Z" style="fill:#8B5AE5;" />
		<path transform="matrix(2.1290531158447266, 0, 0, 2.1290531158447266, -491.04345703125, 0)" d="M-28.09,-2.45 Q-28.09,-8.85 -26.41,-15.25 Q-24.7,-21.64 -21.26,-26.75 Q-17.79,-31.85 -12.54,-35.05 Q-7.29,-38.25 -0.09,-38.25 Q7.31,-38.25 12.61,-35.05 Q17.9,-31.85 21.35,-26.75 Q24.79,-21.64 26.4,-15.25 Q28.01,-8.85 28.01,-2.45 Q28.01,4.04 26.3,10.46 Q24.59,16.86 21.15,21.96 Q17.71,27.04 12.39,30.21 Q7.09,33.36 -0.09,33.36 Q-7.39,33.36 -12.66,30.11 Q-17.91,26.84 -21.35,21.76 Q-24.8,16.66 -26.46,10.27 Q-28.09,3.84 -28.09,-2.45 ZM-0.09,23.16 Q4.89,23.16 8.19,20.67 Q11.51,18.15 13.44,14.37 Q15.39,10.56 16.24,6.07 Q17.1,1.55 17.1,-2.45 Q17.1,-6.56 16.24,-11.05 Q15.39,-15.54 13.44,-19.3 Q11.51,-23.06 8.19,-25.55 Q4.89,-28.04 -0.09,-28.04 Q-4.9,-28.04 -8.2,-25.55 Q-11.49,-23.06 -13.44,-19.2 Q-15.4,-15.34 -16.25,-10.85 Q-17.11,-6.36 -17.11,-2.45 Q-17.11,1.45 -16.25,5.97 Q-15.4,10.46 -13.4,14.27 Q-11.39,18.05 -8.15,20.62 Q-4.9,23.16 -0.09,23.16 Z" style="fill:#9B72E7;" />
		<path transform="matrix(2.737055778503418, 0, 0, 2.737055778503418, -491.04345703125, 0)" d="M-28.09,-2.45 Q-28.09,-8.85 -26.41,-15.25 Q-24.7,-21.64 -21.26,-26.75 Q-17.79,-31.85 -12.54,-35.05 Q-7.29,-38.25 -0.09,-38.25 Q7.31,-38.25 12.61,-35.05 Q17.9,-31.85 21.35,-26.75 Q24.79,-21.64 26.4,-15.25 Q28.01,-8.85 28.01,-2.45 Q28.01,4.04 26.3,10.46 Q24.59,16.86 21.15,21.96 Q17.71,27.04 12.39,30.21 Q7.09,33.36 -0.09,33.36 Q-7.39,33.36 -12.66,30.11 Q-17.91,26.84 -21.35,21.76 Q-24.8,16.66 -26.46,10.27 Q-28.09,3.84 -28.09,-2.45 ZM-0.09,23.16 Q4.89,23.16 8.19,20.67 Q11.51,18.15 13.44,14.37 Q15.39,10.56 16.24,6.07 Q17.1,1.55 17.1,-2.45 Q17.1,-6.56 16.24,-11.05 Q15.39,-15.54 13.44,-19.3 Q11.51,-23.06 8.19,-25.55 Q4.89,-28.04 -0.09,-28.04 Q-4.9,-28.04 -8.2,-25.55 Q-11.49,-23.06 -13.44,-19.2 Q-15.4,-15.34 -16.25,-10.85 Q-17.11,-6.36 -17.11,-2.45 Q-17.11,1.45 -16.25,5.97 Q-15.4,10.46 -13.4,14.27 Q-11.39,18.05 -8.15,20.62 Q-4.9,23.16 -0.09,23.16 Z" style="fill:#AC8BEA;" />
		<path transform="matrix(3.422903299331665, 0, 0, 3.422903299331665, -491.04345703125, 0)" d="M-28.09,-2.45 Q-28.09,-8.85 -26.41,-15.25 Q-24.7,-21.64 -21.26,-26.75 Q-17.79,-31.85 -12.54,-35.05 Q-7.29,-38.25 -0.09,-38.25 Q7.31,-38.25 12.61,-35.05 Q17.9,-31.85 21.35,-26.75 Q24.79,-21.64 26.4,-15.25 Q28.01,-8.85 28.01,-2.45 Q28.01,4.04 26.3,10.46 Q24.59,16.86 21.15,21.96 Q17.71,27.04 12.39,30.21 Q7.09,33.36 -0.09,33.36 Q-7.39,33.36 -12.66,30.11 Q-17.91,26.84 -21.35,21.76 Q-24.8,16.66 -26.46,10.27 Q-28.09,3.84 -28.09,-2.45 ZM-0.09,23.16 Q4.89,23.16 8.19,20.67 Q11.51,18.15 13.44,14.37 Q15.39,10.56 16.24,6.07 Q17.1,1.55 17.1,-2.45 Q17.1,-6.56 16.24,-11.05 Q15.39,-15.54 13.44,-19.3 Q11.51,-23.06 8.19,-25.55 Q4.89,-28.04 -0.09,-28.04 Q-4.9,-28.04 -8.2,-25.55 Q-11.49,-23.06 -13.44,-19.2 Q-15.4,-15.34 -16.25,-10.85 Q-17.11,-6.36 -17.11,-2.45 Q-17.11,1.45 -16.25,5.97 Q-15.4,10.46 -13.4,14.27 Q-11.39,18.05 -8.15,20.62 Q-4.9,23.16 -0.09,23.16 Z" style="fill:#C3AEEA;" />
		<path transform="matrix(4.518448829650879, 0, 0, 4.518448829650879, -491.04345703125, 0)" d="M-28.09,-2.45 Q-28.09,-8.85 -26.41,-15.25 Q-24.7,-21.64 -21.26,-26.75 Q-17.79,-31.85 -12.54,-35.05 Q-7.29,-38.25 -0.09,-38.25 Q7.31,-38.25 12.61,-35.05 Q17.9,-31.85 21.35,-26.75 Q24.79,-21.64 26.4,-15.25 Q28.01,-8.85 28.01,-2.45 Q28.01,4.04 26.3,10.46 Q24.59,16.86 21.15,21.96 Q17.71,27.04 12.39,30.21 Q7.09,33.36 -0.09,33.36 Q-7.39,33.36 -12.66,30.11 Q-17.91,26.84 -21.35,21.76 Q-24.8,16.66 -26.46,10.27 Q-28.09,3.84 -28.09,-2.45 ZM-0.09,23.16 Q4.89,23.16 8.19,20.67 Q11.51,18.15 13.44,14.37 Q15.39,10.56 16.24,6.07 Q17.1,1.55 17.1,-2.45 Q17.1,-6.56 16.24,-11.05 Q15.39,-15.54 13.44,-19.3 Q11.51,-23.06 8.19,-25.55 Q4.89,-28.04 -0.09,-28.04 Q-4.9,-28.04 -8.2,-25.55 Q-11.49,-23.06 -13.44,-19.2 Q-15.4,-15.34 -16.25,-10.85 Q-17.11,-6.36 -17.11,-2.45 Q-17.11,1.45 -16.25,5.97 Q-15.4,10.46 -13.4,14.27 Q-11.39,18.05 -8.15,20.62 Q-4.9,23.16 -0.09,23.16 Z" style="fill:#D1C4E9;" />
	</g>
</svg>